<svg width="282" height="81" viewBox="0 0 282 81" fill="none" xmlns="http://www.w3.org/2000/svg">
<path d="M95.9715 0.299998V29.7H100.721V46.4H93.4215V36H71.0715V46.4H63.7715V29.7H66.5215C67.4548 27.8333 68.3548 25.8667 69.2215 23.8C70.0882 21.7333 70.8882 19.5167 71.6215 17.15C72.3882 14.7833 73.0715 12.2167 73.6715 9.45C74.2715 6.65 74.7715 3.6 75.1715 0.299998H95.9715ZM81.1715 6.6C80.9382 8.33333 80.6048 10.1833 80.1715 12.15C79.7382 14.0833 79.2215 16.0667 78.6215 18.1C78.0548 20.1333 77.4215 22.1333 76.7215 24.1C76.0215 26.0667 75.2715 27.9333 74.4715 29.7H88.4215V6.6H81.1715ZM130.405 22.3C130.405 24.5667 130.088 26.5833 129.455 28.35C128.855 30.1167 127.972 31.6167 126.805 32.85C125.672 34.05 124.288 34.9667 122.655 35.6C121.022 36.2 119.172 36.5 117.105 36.5C115.205 36.5 113.438 36.2 111.805 35.6C110.205 34.9667 108.822 34.05 107.655 32.85C106.488 31.6167 105.572 30.1167 104.905 28.35C104.272 26.5833 103.955 24.5667 103.955 22.3C103.955 19.2667 104.488 16.7167 105.555 14.65C106.622 12.55 108.155 10.95 110.155 9.85C112.155 8.75 114.522 8.2 117.255 8.2C119.822 8.2 122.088 8.75 124.055 9.85C126.022 10.95 127.572 12.55 128.705 14.65C129.838 16.7167 130.405 19.2667 130.405 22.3ZM111.555 22.3C111.555 24.1 111.738 25.6167 112.105 26.85C112.505 28.05 113.122 28.9667 113.955 29.6C114.788 30.2 115.872 30.5 117.205 30.5C118.538 30.5 119.605 30.2 120.405 29.6C121.238 28.9667 121.838 28.05 122.205 26.85C122.605 25.6167 122.805 24.1 122.805 22.3C122.805 20.5 122.605 19 122.205 17.8C121.838 16.6 121.238 15.7 120.405 15.1C119.572 14.5 118.488 14.2 117.155 14.2C115.188 14.2 113.755 14.8833 112.855 16.25C111.988 17.5833 111.555 19.6 111.555 22.3ZM147.662 36.5C144.962 36.5 142.662 36.0167 140.762 35.05C138.862 34.05 137.412 32.5167 136.412 30.45C135.412 28.3833 134.912 25.7333 134.912 22.5C134.912 19.1667 135.479 16.45 136.612 14.35C137.745 12.25 139.312 10.7 141.312 9.7C143.345 8.7 145.679 8.2 148.312 8.2C150.179 8.2 151.795 8.38333 153.162 8.75C154.562 9.11667 155.779 9.55 156.812 10.05L154.612 15.8C153.445 15.3333 152.345 14.95 151.312 14.65C150.312 14.35 149.312 14.2 148.312 14.2C147.012 14.2 145.929 14.5167 145.062 15.15C144.195 15.75 143.545 16.6667 143.112 17.9C142.712 19.1 142.512 20.6167 142.512 22.45C142.512 24.25 142.729 25.75 143.162 26.95C143.629 28.1167 144.295 29 145.162 29.6C146.029 30.1667 147.079 30.45 148.312 30.45C149.879 30.45 151.262 30.25 152.462 29.85C153.662 29.4167 154.829 28.8333 155.962 28.1V34.45C154.829 35.1833 153.629 35.7 152.362 36C151.129 36.3333 149.562 36.5 147.662 36.5ZM180.146 8.7H188.346L177.546 21.8L189.296 36H180.846L169.696 22.15V36H162.246V8.7H169.696V21.95L180.146 8.7ZM204.403 8.15C208.069 8.15 210.869 8.95 212.803 10.55C214.769 12.1167 215.753 14.5333 215.753 17.8V36H210.553L209.103 32.3H208.903C208.136 33.2667 207.336 34.0667 206.503 34.7C205.703 35.3333 204.769 35.7833 203.703 36.05C202.669 36.35 201.386 36.5 199.853 36.5C198.253 36.5 196.803 36.2 195.503 35.6C194.236 34.9667 193.236 34.0167 192.503 32.75C191.769 31.45 191.403 29.8167 191.403 27.85C191.403 24.95 192.419 22.8167 194.453 21.45C196.486 20.05 199.536 19.2833 203.603 19.15L208.353 19V17.8C208.353 16.3667 207.969 15.3167 207.203 14.65C206.469 13.9833 205.436 13.65 204.103 13.65C202.769 13.65 201.469 13.85 200.203 14.25C198.936 14.6167 197.669 15.0833 196.403 15.65L193.953 10.6C195.419 9.83333 197.036 9.23333 198.803 8.8C200.603 8.36666 202.469 8.15 204.403 8.15ZM205.453 23.45C203.053 23.5167 201.386 23.95 200.453 24.75C199.519 25.55 199.053 26.6 199.053 27.9C199.053 29.0333 199.386 29.85 200.053 30.35C200.719 30.8167 201.586 31.05 202.653 31.05C204.253 31.05 205.603 30.5833 206.703 29.65C207.803 28.6833 208.353 27.3333 208.353 25.6V23.35L205.453 23.45ZM8.539 55.176C10.8857 55.176 12.6777 55.688 13.915 56.712C15.1737 57.7147 15.803 59.2613 15.803 61.352V73H12.475L11.547 70.632H11.419C10.9283 71.2507 10.4163 71.7627 9.883 72.168C9.371 72.5733 8.77367 72.8613 8.091 73.032C7.42967 73.224 6.60833 73.32 5.627 73.32C4.603 73.32 3.675 73.128 2.843 72.744C2.03233 72.3387 1.39233 71.7307 0.923 70.92C0.453667 70.088 0.219 69.0427 0.219 67.784C0.219 65.928 0.869667 64.5627 2.171 63.688C3.47233 62.792 5.42433 62.3013 8.027 62.216L11.067 62.12V61.352C11.067 60.4347 10.8217 59.7627 10.331 59.336C9.86167 58.9093 9.20033 58.696 8.347 58.696C7.49367 58.696 6.66167 58.824 5.851 59.08C5.04033 59.3147 4.22967 59.6133 3.419 59.976L1.851 56.744C2.78967 56.2533 3.82433 55.8693 4.955 55.592C6.107 55.3147 7.30167 55.176 8.539 55.176ZM9.211 64.968C7.675 65.0107 6.60833 65.288 6.011 65.8C5.41367 66.312 5.115 66.984 5.115 67.816C5.115 68.5413 5.32833 69.064 5.755 69.384C6.18167 69.6827 6.73633 69.832 7.419 69.832C8.443 69.832 9.307 69.5333 10.011 68.936C10.715 68.3173 11.067 67.4533 11.067 66.344V64.904L9.211 64.968ZM36.3955 55.528V69.512H38.9555V79.272H34.6675V73H22.9235V79.272H18.6355V69.512H20.1075C20.8755 68.3387 21.5262 67.0053 22.0595 65.512C22.5928 63.9973 23.0195 62.3867 23.3395 60.68C23.6595 58.9733 23.8942 57.256 24.0435 55.528H36.3955ZM28.0435 59.112C27.8728 60.392 27.6595 61.64 27.4035 62.856C27.1475 64.0507 26.8275 65.2027 26.4435 66.312C26.0808 67.4213 25.6328 68.488 25.0995 69.512H31.6275V59.112H28.0435ZM63.9495 55.528V73H59.5015V64.424C59.5015 63.5707 59.5122 62.7387 59.5335 61.928C59.5762 61.1173 59.6295 60.3707 59.6935 59.688H59.5975L54.7655 73H51.1815L46.2855 59.656H46.1575C46.2428 60.36 46.2962 61.1173 46.3175 61.928C46.3602 62.7173 46.3815 63.592 46.3815 64.552V73H41.9335V55.528H48.6855L53.0375 67.368L57.4535 55.528H63.9495ZM73.5415 62.44C73.5415 62.8027 73.5202 63.2507 73.4775 63.784C73.4562 64.3173 73.4242 64.8613 73.3815 65.416C73.3602 65.9707 73.3282 66.4613 73.2855 66.888C73.2428 67.3147 73.2108 67.6133 73.1895 67.784L81.2535 55.528H86.9815V73H82.3735V66.024C82.3735 65.448 82.3948 64.8187 82.4375 64.136C82.4802 63.432 82.5228 62.7813 82.5655 62.184C82.6295 61.5653 82.6722 61.096 82.6935 60.776L74.6615 73H68.9335V55.528H73.5415V62.44ZM96.7328 55.528V62.248H103.389V55.528H108.157V73H103.389V65.8H96.7328V73H91.9648V55.528H96.7328ZM117.76 62.44C117.76 62.8027 117.739 63.2507 117.696 63.784C117.675 64.3173 117.643 64.8613 117.6 65.416C117.579 65.9707 117.547 66.4613 117.504 66.888C117.462 67.3147 117.43 67.6133 117.408 67.784L125.472 55.528H131.2V73H126.592V66.024C126.592 65.448 126.614 64.8187 126.656 64.136C126.699 63.432 126.742 62.7813 126.784 62.184C126.848 61.5653 126.891 61.096 126.912 60.776L118.88 73H113.152V55.528H117.76V62.44ZM143.288 73.32C141.56 73.32 140.088 73.0107 138.872 72.392C137.656 71.752 136.728 70.7707 136.088 69.448C135.448 68.1253 135.128 66.4293 135.128 64.36C135.128 62.2267 135.49 60.488 136.216 59.144C136.941 57.8 137.944 56.808 139.224 56.168C140.525 55.528 142.018 55.208 143.704 55.208C144.898 55.208 145.933 55.3253 146.808 55.56C147.704 55.7947 148.482 56.072 149.144 56.392L147.736 60.072C146.989 59.7733 146.285 59.528 145.624 59.336C144.984 59.144 144.344 59.048 143.704 59.048C142.872 59.048 142.178 59.2507 141.624 59.656C141.069 60.04 140.653 60.6267 140.376 61.416C140.12 62.184 139.992 63.1547 139.992 64.328C139.992 65.48 140.13 66.44 140.408 67.208C140.706 67.9547 141.133 68.52 141.688 68.904C142.242 69.2667 142.914 69.448 143.704 69.448C144.706 69.448 145.592 69.32 146.36 69.064C147.128 68.7867 147.874 68.4133 148.6 67.944V72.008C147.874 72.4773 147.106 72.808 146.296 73C145.506 73.2133 144.504 73.32 143.288 73.32ZM167.085 59.112H161.357V73H156.589V59.112H150.861V55.528H167.085V59.112ZM180.037 55.208C181.999 55.208 183.589 55.976 184.805 57.512C186.021 59.0267 186.628 61.2667 186.628 64.232C186.628 66.216 186.341 67.8907 185.765 69.256C185.189 70.6 184.399 71.6133 183.397 72.296C182.394 72.9787 181.231 73.32 179.909 73.32C179.077 73.32 178.351 73.2133 177.733 73C177.135 72.7867 176.623 72.5093 176.197 72.168C175.77 71.8267 175.397 71.464 175.077 71.08H174.821C174.906 71.4853 174.97 71.912 175.013 72.36C175.055 72.7867 175.077 73.2133 175.077 73.64V80.68H170.309V55.528H174.181L174.853 57.8H175.077C175.397 57.3307 175.781 56.904 176.229 56.52C176.677 56.1147 177.21 55.7947 177.829 55.56C178.469 55.3253 179.205 55.208 180.037 55.208ZM178.501 59.016C177.669 59.016 177.007 59.1867 176.517 59.528C176.026 59.8693 175.663 60.392 175.429 61.096C175.215 61.7787 175.098 62.6427 175.077 63.688V64.2C175.077 65.3307 175.183 66.2907 175.397 67.08C175.61 67.848 175.973 68.4347 176.485 68.84C176.997 69.2453 177.69 69.448 178.565 69.448C179.29 69.448 179.887 69.2453 180.357 68.84C180.826 68.4347 181.178 67.8373 181.413 67.048C181.647 66.2587 181.765 65.2987 181.765 64.168C181.765 62.4613 181.498 61.1813 180.965 60.328C180.453 59.4533 179.631 59.016 178.501 59.016ZM197.727 55.176C200.073 55.176 201.865 55.688 203.103 56.712C204.361 57.7147 204.991 59.2613 204.991 61.352V73H201.663L200.735 70.632H200.607C200.116 71.2507 199.604 71.7627 199.071 72.168C198.559 72.5733 197.961 72.8613 197.279 73.032C196.617 73.224 195.796 73.32 194.815 73.32C193.791 73.32 192.863 73.128 192.031 72.744C191.22 72.3387 190.58 71.7307 190.111 70.92C189.641 70.088 189.407 69.0427 189.407 67.784C189.407 65.928 190.057 64.5627 191.359 63.688C192.66 62.792 194.612 62.3013 197.215 62.216L200.255 62.12V61.352C200.255 60.4347 200.009 59.7627 199.519 59.336C199.049 58.9093 198.388 58.696 197.535 58.696C196.681 58.696 195.849 58.824 195.039 59.08C194.228 59.3147 193.417 59.6133 192.607 59.976L191.039 56.744C191.977 56.2533 193.012 55.8693 194.143 55.592C195.295 55.3147 196.489 55.176 197.727 55.176ZM198.399 64.968C196.863 65.0107 195.796 65.288 195.199 65.8C194.601 66.312 194.303 66.984 194.303 67.816C194.303 68.5413 194.516 69.064 194.943 69.384C195.369 69.6827 195.924 69.832 196.607 69.832C197.631 69.832 198.495 69.5333 199.199 68.936C199.903 68.3173 200.255 67.4533 200.255 66.344V64.904L198.399 64.968ZM224.335 59.112H218.607V73H213.839V59.112H208.111V55.528H224.335V59.112ZM243.118 64.232C243.118 65.6827 242.915 66.9733 242.51 68.104C242.126 69.2347 241.561 70.1947 240.814 70.984C240.089 71.752 239.203 72.3387 238.158 72.744C237.113 73.128 235.929 73.32 234.606 73.32C233.39 73.32 232.259 73.128 231.214 72.744C230.19 72.3387 229.305 71.752 228.558 70.984C227.811 70.1947 227.225 69.2347 226.798 68.104C226.393 66.9733 226.19 65.6827 226.19 64.232C226.19 62.2907 226.531 60.6587 227.214 59.336C227.897 57.992 228.878 56.968 230.158 56.264C231.438 55.56 232.953 55.208 234.702 55.208C236.345 55.208 237.795 55.56 239.054 56.264C240.313 56.968 241.305 57.992 242.03 59.336C242.755 60.6587 243.118 62.2907 243.118 64.232ZM231.054 64.232C231.054 65.384 231.171 66.3547 231.406 67.144C231.662 67.912 232.057 68.4987 232.59 68.904C233.123 69.288 233.817 69.48 234.67 69.48C235.523 69.48 236.206 69.288 236.718 68.904C237.251 68.4987 237.635 67.912 237.87 67.144C238.126 66.3547 238.254 65.384 238.254 64.232C238.254 63.08 238.126 62.12 237.87 61.352C237.635 60.584 237.251 60.008 236.718 59.624C236.185 59.24 235.491 59.048 234.638 59.048C233.379 59.048 232.462 59.4853 231.886 60.36C231.331 61.2133 231.054 62.504 231.054 64.232ZM256.787 55.208C258.749 55.208 260.339 55.976 261.555 57.512C262.771 59.0267 263.378 61.2667 263.378 64.232C263.378 66.216 263.091 67.8907 262.515 69.256C261.939 70.6 261.149 71.6133 260.147 72.296C259.144 72.9787 257.981 73.32 256.659 73.32C255.827 73.32 255.101 73.2133 254.483 73C253.885 72.7867 253.373 72.5093 252.947 72.168C252.52 71.8267 252.147 71.464 251.827 71.08H251.571C251.656 71.4853 251.72 71.912 251.763 72.36C251.805 72.7867 251.827 73.2133 251.827 73.64V80.68H247.059V55.528H250.931L251.603 57.8H251.827C252.147 57.3307 252.531 56.904 252.979 56.52C253.427 56.1147 253.96 55.7947 254.579 55.56C255.219 55.3253 255.955 55.208 256.787 55.208ZM255.251 59.016C254.419 59.016 253.757 59.1867 253.267 59.528C252.776 59.8693 252.413 60.392 252.179 61.096C251.965 61.7787 251.848 62.6427 251.827 63.688V64.2C251.827 65.3307 251.933 66.2907 252.147 67.08C252.36 67.848 252.723 68.4347 253.235 68.84C253.747 69.2453 254.44 69.448 255.315 69.448C256.04 69.448 256.637 69.2453 257.107 68.84C257.576 68.4347 257.928 67.8373 258.163 67.048C258.397 66.2587 258.515 65.2987 258.515 64.168C258.515 62.4613 258.248 61.1813 257.715 60.328C257.203 59.4533 256.381 59.016 255.251 59.016ZM274.477 55.176C276.823 55.176 278.615 55.688 279.853 56.712C281.111 57.7147 281.741 59.2613 281.741 61.352V73H278.413L277.485 70.632H277.357C276.866 71.2507 276.354 71.7627 275.821 72.168C275.309 72.5733 274.711 72.8613 274.029 73.032C273.367 73.224 272.546 73.32 271.565 73.32C270.541 73.32 269.613 73.128 268.781 72.744C267.97 72.3387 267.33 71.7307 266.861 70.92C266.391 70.088 266.157 69.0427 266.157 67.784C266.157 65.928 266.807 64.5627 268.109 63.688C269.41 62.792 271.362 62.3013 273.965 62.216L277.005 62.12V61.352C277.005 60.4347 276.759 59.7627 276.269 59.336C275.799 58.9093 275.138 58.696 274.285 58.696C273.431 58.696 272.599 58.824 271.789 59.08C270.978 59.3147 270.167 59.6133 269.357 59.976L267.789 56.744C268.727 56.2533 269.762 55.8693 270.893 55.592C272.045 55.3147 273.239 55.176 274.477 55.176ZM275.149 64.968C273.613 65.0107 272.546 65.288 271.949 65.8C271.351 66.312 271.053 66.984 271.053 67.816C271.053 68.5413 271.266 69.064 271.693 69.384C272.119 69.6827 272.674 69.832 273.357 69.832C274.381 69.832 275.245 69.5333 275.949 68.936C276.653 68.3173 277.005 67.4533 277.005 66.344V64.904L275.149 64.968Z" fill="#8A2BE2"/>
</svg>
