<svg width="38" height="39" viewBox="0 0 38 39" fill="none" xmlns="http://www.w3.org/2000/svg">
<path fill-rule="evenodd" clip-rule="evenodd" d="M36.4167 38.4185H1.58333V35.2576H3.16667V24.1943H0L4.75 9.97013H13.3459L17.4167 6.48836V0.487335H25.3333L23.75 2.84381L25.3333 5.22873H19L24.6541 9.97013H33.25L38 24.1943H34.8333V35.2576H36.4167V38.4185ZM17.4167 30.5162H15.8333V36.838H17.4167V30.5162ZM22.1667 30.5162H20.5833V36.838H22.1667V30.5162ZM31.6667 24.1943H6.33333V35.2576H12.6667V27.3552H25.3333V35.2576H31.6667V24.1943ZM7.91667 30.5162H11.0833V33.6771H7.91667V30.5162ZM30.0833 30.5162V33.6771H26.9167V30.5162H30.0833ZM7.91667 25.7748H11.0833V28.9357H7.91667V25.7748ZM26.9167 25.7748H30.0833V28.9357H26.9167V25.7748ZM28.3496 13.1311L26.296 15.5223L19 9.28104L11.704 15.5223L9.65042 13.1311H7.03317L4.39375 21.0334H33.6063L30.9668 13.1311H28.3496ZM19 12.3408C21.185 12.3408 22.9583 14.1109 22.9583 16.292C22.9583 18.473 21.185 20.2431 19 20.2431C16.815 20.2431 15.0417 18.473 15.0417 16.292C15.0417 14.1109 16.815 12.3408 19 12.3408ZM19 14.7115H17.7919V17.5564H20.5833V16.292H19V14.7115Z" fill="#ffbe98"/>
</svg>
