<svg width="150" height="138" viewBox="0 0 150 138" fill="none" xmlns="http://www.w3.org/2000/svg">
<path d="M75 0L139.952 34.4933V103.48L75 137.973L10.0481 103.48V34.4933L75 0Z" fill="#FC6C85"/>
<path fill-rule="evenodd" clip-rule="evenodd" d="M75.497 98.8842C74.2326 98.8842 72.2503 96.8162 70.5102 92.2458C68.7997 93.1063 67.3137 93.7829 65.8691 94.3983C68.135 100.208 71.3581 104 75.497 104C79.7512 104 83.0364 100.001 85.3111 93.9317C83.8783 93.3454 82.3657 92.6775 80.6404 91.8346C78.8708 96.6967 76.8058 98.8842 75.497 98.8842ZM61.5854 92.4208C52.4301 95.7429 43.003 95.8275 43.003 87.6258C43.003 84.8871 44.2881 81.0429 48.3088 75.72C50.0253 73.4479 52.0135 71.2137 54.0313 69.1633C58.5543 64.6279 63.6504 60.2675 70.2946 55.7496C67.0951 54.0113 63.6061 52.3458 60.2028 51.1121C56.7167 49.8433 53.6472 49.1404 51.2956 49.1404C49.7948 49.1404 48.6781 49.4525 48.3147 49.9804C47.9218 50.5404 47.9071 52.2671 49.6294 55.3558L50.2498 55.3179C53.3429 55.3179 55.857 57.8438 55.857 60.9558C55.857 64.0679 53.3429 66.5879 50.2498 66.5879C47.1537 66.5879 44.6455 64.0679 44.6455 60.9558C44.6455 59.9467 44.9085 59.0017 45.3693 58.1821C43.6263 55.1488 43 52.7571 43 50.8817C43 46.4629 46.4092 44.0158 51.2956 44.0158C58.7227 44.0158 68.7258 48.8633 75.1721 52.6083C81.7128 48.6329 92.0617 43.3946 99.7044 43.3946C105.297 43.3946 107.997 46.4688 107.997 50.38C107.997 53.1188 106.709 56.96 102.691 62.28C93.5802 74.3463 75.4645 87.3808 61.5854 92.4208ZM105.654 79.8646C106.074 79.0771 106.304 78.1846 106.304 77.2337C106.304 74.1187 103.796 71.5958 100.7 71.5958C97.6039 71.5958 95.0957 74.1187 95.0957 77.2337C95.0957 80.3429 97.6039 82.8629 100.7 82.8629L101.462 82.8133C103.093 85.8 103.069 87.4713 102.688 88.0254C102.322 88.5533 101.208 88.8625 99.7044 88.8625C94.9716 88.8625 88.3806 86.1092 84.1353 84.0296C82.7173 85.0271 80.9595 86.2112 79.2401 87.2933C84.9271 90.315 93.2936 93.9871 99.7044 93.9871C104.549 93.9871 108 91.5662 108 87.1213C108 85.2604 107.377 82.8775 105.654 79.8646ZM67.7391 80.2117L67.6978 80.1825C64.3181 77.82 60.9856 75.2242 57.8984 72.5088C49.5762 80.9 47.2305 86.9842 48.3325 88.6204C48.7047 89.1717 49.786 89.4925 51.2956 89.4925C58.2382 89.4925 69.2576 83.6067 75.7777 79.3862C83.7808 74.2092 92.9125 66.7629 98.632 59.1854C103.081 53.2996 103.217 50.1992 102.668 49.3825C102.295 48.8283 101.217 48.5133 99.7044 48.5133C93.9376 48.5133 85.1575 52.7688 80.0998 55.6504C83.8311 58.0888 87.3171 60.6642 90.4989 63.2804C89.2935 64.4908 88.035 65.6692 86.7469 66.8125C83.2136 63.9483 79.2903 61.1367 75.2223 58.6167C70.5516 61.6383 65.8484 65.1908 61.6238 68.9767C64.7996 71.7504 68.584 74.6613 72.6166 77.3563C71.0745 78.3217 69.5176 79.2433 67.7391 80.2117ZM75.497 63.1667C78.7586 63.1667 81.4056 65.78 81.4056 69C81.4056 72.22 78.7586 74.8333 75.497 74.8333C72.2355 74.8333 69.5885 72.22 69.5885 69C69.5885 65.78 72.2355 63.1667 75.497 63.1667ZM70.3596 46.1683C68.6461 45.3371 67.1246 44.6575 65.6888 44.0742C67.9636 38.0017 71.2488 34 75.497 34C79.6419 34 82.868 37.7975 85.1309 43.6017C83.6833 44.22 82.1885 44.9054 80.4868 45.7571C78.7527 41.1867 76.7703 39.1217 75.497 39.1217C74.1942 39.1217 72.1321 41.3092 70.3596 46.1683Z" fill="white"/>
</svg>
