<svg width="35" height="35" viewBox="0 0 35 35" fill="none" xmlns="http://www.w3.org/2000/svg">
<rect width="35" height="35" rx="1" fill="#ffbe98"/>
<path d="M14 18V24C14 24.552 13.552 25 13 25C12.448 25 12 24.552 12 24V18C12 17.448 12.448 17 13 17C13.552 17 14 17.448 14 18ZM21 17C20.448 17 20 17.448 20 18V24C20 24.552 20.448 25 21 25C21.552 25 22 24.552 22 24V18C22 17.448 21.552 17 21 17ZM17 17C16.448 17 16 17.448 16 18V24C16 24.552 16.448 25 17 25C17.552 25 18 24.552 18 24V18C18 17.448 17.552 17 17 17ZM21.333 8.377C20.451 8.193 19.96 6.968 20.144 6.086L14.941 5C14.757 5.883 13.818 6.81 12.937 6.625L7.409 5.526L7 7.484L26.591 11.583L27 9.625L21.333 8.377ZM26 13V29H8V13H26ZM24 27V15H10V27H24Z" fill="#F5F5F5"/>
</svg>
