<svg width="150" height="146" viewBox="0 0 150 146" fill="none" xmlns="http://www.w3.org/2000/svg">
<g filter="url(#filter0_d_1_647)">
<path d="M75 0L139.952 34.4933V103.48L75 137.973L10.0481 103.48V34.4933L75 0Z" fill="#81B37A"/>
</g>
<path d="M93.002 61.0081C99.9077 61.0081 106.158 63.8033 110.679 68.3236C115.2 72.8439 117.996 79.0934 117.996 85.998H118V86.002H117.996C117.996 92.9066 115.2 99.1561 110.679 103.676C106.158 108.197 99.9077 110.992 93.002 110.992V111H92.998V110.992C86.0923 110.992 79.8418 108.197 75.3207 103.676C70.8038 99.152 68.0081 92.9066 68.0081 85.998H68V85.9939H68.0081C68.0081 79.0934 70.8038 72.8439 75.3248 68.3236C79.8459 63.8033 86.0964 61.0081 93.002 61.0081ZM79.0035 79.6752C78.5599 79.13 78.6413 78.3285 79.1866 77.885C79.7319 77.4415 80.5336 77.5229 80.9771 78.0681C81.0585 78.1698 81.1725 78.2756 81.3027 78.3855C81.9619 78.9266 82.9752 79.2887 84.0495 79.3457C85.1075 79.4026 86.194 79.1544 87.0201 78.4872C87.1869 78.3529 87.3497 78.1861 87.5084 77.9949C87.956 77.4497 88.7577 77.3683 89.303 77.8159C89.8483 78.2634 89.9297 79.0649 89.4821 79.6101C89.2257 79.9234 88.9368 80.2042 88.6234 80.4605C87.2643 81.5631 85.5511 81.974 83.9193 81.8886C82.3078 81.8032 80.7452 81.2254 79.6871 80.3588C79.4389 80.1594 79.207 79.9275 79.0035 79.6752ZM82.3363 97.5652C81.9985 98.1837 81.2294 98.4074 80.6109 98.0738C79.9923 97.7361 79.7685 96.9671 80.1022 96.3487C81.7707 93.289 84.3832 91.1082 87.3619 89.8225C89.6448 88.8379 92.1434 88.3741 94.5891 88.4473C97.0551 88.5205 99.4804 89.1308 101.596 90.2864C104.063 91.629 106.105 93.704 107.326 96.5196C107.603 97.1624 107.306 97.9111 106.663 98.1877C106.02 98.4644 105.271 98.1674 104.994 97.5245C104.018 95.2664 102.37 93.5983 100.384 92.516C98.6259 91.5558 96.5953 91.0472 94.524 90.9862C92.4364 90.9251 90.3081 91.3157 88.3711 92.1539C85.8888 93.228 83.7158 95.0345 82.3363 97.5652ZM96.522 79.6752C96.0785 79.13 96.1598 78.3285 96.7051 77.885C97.2504 77.4415 98.0521 77.5229 98.4956 78.0681C98.577 78.1698 98.691 78.2756 98.8212 78.3855C99.4804 78.9266 100.494 79.2887 101.568 79.3457C102.626 79.4026 103.713 79.1544 104.535 78.4872C104.701 78.3529 104.864 78.1861 105.023 77.9949C105.47 77.4497 106.272 77.3683 106.817 77.8159C107.363 78.2634 107.444 79.0649 106.996 79.6101C106.74 79.9234 106.451 80.2042 106.138 80.4605C104.779 81.5631 103.066 81.974 101.434 81.8886C99.8223 81.8032 98.2596 81.2254 97.2016 80.3588C96.9574 80.1594 96.7255 79.9275 96.522 79.6752ZM93.002 64.1858V64.1939H92.998L93.002 64.1858C86.9835 64.1858 81.5306 66.6311 77.5792 70.5817C73.6279 74.5284 71.1863 79.9804 71.1863 85.998H71.1944V86.002H71.1863C71.1863 92.0196 73.632 97.4716 77.5792 101.418C81.5306 105.369 86.9835 107.81 93.002 107.814V107.806H93.0061V107.814C99.0247 107.814 104.478 105.369 108.425 101.418C112.376 97.4676 114.818 92.0155 114.818 85.998H114.814V85.9939H114.818C114.818 79.9804 112.372 74.5284 108.425 70.5777C104.474 66.6311 99.0206 64.1858 93.002 64.1858Z" fill="white"/>
<path d="M48.0016 29C50.6279 28.9987 53.2288 29.5151 55.6554 30.5196C58.0821 31.5241 60.2871 32.9971 62.1443 34.8543C64.0016 36.7116 65.4746 38.9167 66.4794 41.3436C67.4841 43.7705 68.0009 46.3716 68 48.9984C68.0004 51.6249 67.4836 54.2257 66.4789 56.6524C65.4742 59.0791 64.0015 61.2841 62.1447 63.1415C60.288 64.9988 58.0836 66.4722 55.6574 67.4774C53.2313 68.4826 50.631 69 48.0049 69C45.3786 69.0021 42.7776 68.4866 40.3506 67.4829C37.9236 66.4792 35.7181 65.0069 33.8603 63.1503C32.0025 61.2936 30.5286 59.089 29.5231 56.6625C28.5176 54.2359 28 51.6349 28 49.0081C27.9974 46.3802 28.513 43.7775 29.5172 41.3491C30.5215 38.9206 31.9946 36.7141 33.8524 34.8557C35.7102 32.9973 37.9162 31.5235 40.3441 30.5187C42.7719 29.514 45.3741 28.9979 48.0016 29ZM38.7984 42.3692C38.6119 42.5783 38.352 42.7073 38.0727 42.7295C37.7934 42.7516 37.5164 42.665 37.2993 42.4878C37.0823 42.3106 36.942 42.0565 36.9077 41.7784C36.8735 41.5003 36.9478 41.2197 37.1153 40.9951C37.2901 40.7763 37.4864 40.5756 37.7013 40.396C38.7435 39.5986 40.007 39.1437 41.3181 39.0936C42.762 38.9866 44.1939 39.4207 45.3354 40.3114C45.6037 40.5313 45.8491 40.7779 46.0679 41.0472C46.1587 41.158 46.2269 41.2855 46.2684 41.4226C46.31 41.5597 46.3241 41.7036 46.3101 41.8462C46.296 41.9887 46.254 42.1271 46.1865 42.2534C46.119 42.3798 46.0272 42.4916 45.9165 42.5824C45.8058 42.6733 45.6782 42.7414 45.5412 42.783C45.4041 42.8246 45.2602 42.8387 45.1177 42.8247C44.9751 42.8106 44.8368 42.7686 44.7105 42.7011C44.5842 42.6335 44.4724 42.5418 44.3815 42.431C44.2538 42.2799 44.1097 42.1434 43.9518 42.024C43.2257 41.4752 42.3229 41.2133 41.4158 41.2882C40.5693 41.3112 39.7502 41.593 39.0686 42.0956C38.965 42.1768 38.8701 42.2685 38.7854 42.3692H38.7984ZM52.0807 42.3692C51.8986 42.5928 51.635 42.7349 51.3481 42.7642C51.0611 42.7935 50.7743 42.7076 50.5507 42.5254C50.327 42.3432 50.185 42.0796 50.1556 41.7926C50.1263 41.5057 50.2122 41.2188 50.3944 40.9951C50.5697 40.7807 50.766 40.5844 50.9804 40.409C52.0215 39.608 53.2848 39.1485 54.5972 39.0936C56.0421 38.9861 57.4753 39.4202 58.6177 40.3114C58.8853 40.5322 59.1306 40.7786 59.3502 41.0472C59.4411 41.158 59.5092 41.2855 59.5508 41.4226C59.5923 41.5597 59.6065 41.7036 59.5924 41.8462C59.5784 41.9887 59.5364 42.1271 59.4688 42.2534C59.4013 42.3798 59.3096 42.4916 59.1988 42.5824C59.0881 42.6733 58.9606 42.7414 58.8235 42.783C58.6864 42.8246 58.5425 42.8387 58.4 42.8247C58.2575 42.8106 58.1191 42.7686 57.9928 42.7011C57.8665 42.6335 57.7547 42.5418 57.6639 42.431C57.5394 42.2814 57.3997 42.145 57.2472 42.024C56.5184 41.467 55.609 41.2002 54.6949 41.2751C53.847 41.3023 53.0279 41.5887 52.3477 42.0956C52.2458 42.1777 52.1521 42.2692 52.0677 42.3692H52.0807ZM36.6238 53.5275C36.5471 53.4017 36.4968 53.2617 36.4759 53.1159C36.455 52.9701 36.4639 52.8216 36.5021 52.6793C36.5403 52.5371 36.607 52.4041 36.6981 52.2884C36.7893 52.1727 36.903 52.0767 37.0323 52.0063C37.1617 51.9359 37.304 51.8925 37.4506 51.8787C37.5972 51.8649 37.7451 51.8811 37.8853 51.9262C38.0255 51.9713 38.155 52.0445 38.2661 52.1412C38.3772 52.2379 38.4675 52.3562 38.5315 52.4888C39.6829 54.5651 41.4992 56.1936 43.6881 57.1123C45.347 57.8243 47.1413 58.1655 48.9457 58.1119C50.6934 58.0745 52.4081 57.6284 53.9526 56.8095C55.7116 55.8684 57.1001 54.3592 57.8918 52.5279C58.0049 52.261 58.2193 52.0501 58.4879 51.9414C58.7566 51.8327 59.0574 51.8352 59.3242 51.9483C59.591 52.0614 59.8019 52.2759 59.9106 52.5446C60.0192 52.8133 60.0167 53.1141 59.9036 53.381C58.9238 55.6578 57.2028 57.5362 55.0204 58.711C53.1756 59.6972 51.1249 60.2359 49.0336 60.2837C46.9109 60.3469 44.7999 59.9457 42.8482 59.1083C40.2187 57.995 38.04 56.0293 36.6628 53.5275H36.6238ZM48.0179 31.5495C43.3872 31.5477 38.9454 33.3857 35.6694 36.6591C32.3934 39.9326 30.5516 44.3734 30.549 49.0049C30.5525 53.6333 32.3924 58.0711 35.6646 61.3439C38.9368 64.6167 43.374 66.4569 48.0016 66.4603C52.6293 66.456 57.0661 64.615 60.3377 61.3416C63.6094 58.0682 65.4484 53.63 65.451 49.0016C65.4475 44.3741 63.608 39.9371 60.3364 36.6649C57.0647 33.3927 52.6284 31.5529 48.0016 31.5495H48.0179Z" fill="white"/>
<defs>
<filter id="filter0_d_1_647" x="10.0481" y="0" width="137.904" height="145.973" filterUnits="userSpaceOnUse" color-interpolation-filters="sRGB">
<feFlood flood-opacity="0" result="BackgroundImageFix"/>
<feColorMatrix in="SourceAlpha" type="matrix" values="0 0 0 0 0 0 0 0 0 0 0 0 0 0 0 0 0 0 127 0" result="hardAlpha"/>
<feOffset dx="4" dy="4"/>
<feGaussianBlur stdDeviation="2"/>
<feComposite in2="hardAlpha" operator="out"/>
<feColorMatrix type="matrix" values="0 0 0 0 0 0 0 0 0 0 0 0 0 0 0 0 0 0 0.25 0"/>
<feBlend mode="normal" in2="BackgroundImageFix" result="effect1_dropShadow_1_647"/>
<feBlend mode="normal" in="SourceGraphic" in2="effect1_dropShadow_1_647" result="shape"/>
</filter>
</defs>
</svg>
