<svg width="55" height="55" viewBox="0 0 55 55" fill="none" xmlns="http://www.w3.org/2000/svg">
<circle cx="27.5" cy="27.5" r="27.5" fill="#FA8072"/>
<g clip-path="url(#clip0_147_1139)">
<path d="M18.7263 38.373C23.9822 38.8084 22.0996 33.2248 26.9625 33.1732L29.0686 34.9309C29.5934 41.2766 21.8327 42.6917 18.7263 38.373ZM34.8424 30.2204C36.4775 27.6549 41.5421 19.0497 41.5421 19.0497C41.9455 18.3358 41.0494 17.5911 40.4238 18.1181C40.4238 18.1181 32.8934 24.6654 30.6716 26.7405C28.9162 28.3814 28.9082 29.1307 28.3398 31.8361L30.2648 33.4402C32.8166 32.3918 33.5511 32.2497 34.8424 30.2204ZM21.0936 34.6617C21.8567 33.3623 23.0965 31.2505 26.1891 30.924C26.6864 28.5326 26.8846 27.1427 29.1075 25.0665C30.6808 23.5975 34.7657 20.0145 37.1524 17.9291C36.0066 15.3991 32.4075 13.3194 27.7818 13.3572C20.1918 13.4202 14.0822 19.6192 14.143 27.2126C14.1693 30.5481 15.3816 33.5961 17.3742 35.9611C19.2282 36.4526 20.0967 36.3598 21.0936 34.6617ZM29.0594 16.5174C30.3221 16.5105 31.3568 17.5269 31.3694 18.7896C31.374 20.0534 30.3588 21.0916 29.0938 21.0996C27.8277 21.1099 26.793 20.0913 26.7861 18.8263C26.7712 17.559 27.7898 16.5277 29.0594 16.5174ZM22.1879 18.8102C23.4506 18.7988 24.4887 19.8151 24.4933 21.0824C24.507 22.3497 23.4849 23.3798 22.2245 23.3924C20.9572 23.4004 19.9225 22.3829 19.9145 21.1145C19.9042 19.8506 20.9194 18.8182 22.1879 18.8102ZM19.8928 25.6829C21.16 25.6749 22.1959 26.6936 22.2028 27.9574C22.2142 29.2224 21.1944 30.2582 19.9271 30.2663C18.661 30.2754 17.6297 29.2579 17.6229 27.9918C17.6103 26.7256 18.63 25.6955 19.8928 25.6829ZM31.3866 35.4592C31.4107 38.0247 30.376 39.7194 29.4593 40.7151L29.4066 40.7655C35.428 40.0883 39.7902 35.8339 36.5864 31.7261C35.0132 34.0716 33.6829 34.5242 31.3866 35.4592Z" fill="white"/>
</g>
<defs>
<clipPath id="clip0_147_1139">
<rect width="27.5" height="27.5" fill="white" transform="translate(14.1429 13.3571)"/>
</clipPath>
</defs>
</svg>
