<svg width="25" height="24" viewBox="0 0 25 24" fill="none" xmlns="http://www.w3.org/2000/svg">
<path d="M6.19239 7C6.74763 7 7.20009 7.449 7.20009 8C7.20009 8.551 6.74763 9 6.19239 9C5.63716 9 5.1847 8.551 5.1847 8C5.1847 7.449 5.63716 7 6.19239 7ZM6.19239 6C5.07889 6 4.17701 6.895 4.17701 8C4.17701 9.105 5.07889 10 6.19239 10C7.30589 10 8.20778 9.105 8.20778 8C8.20778 6.895 7.30589 6 6.19239 6ZM18.2686 13.949C18.1769 15.206 17.7093 16.195 16.8659 16.917C16.0234 17.639 14.912 18 13.5314 18C12.0229 18 10.8358 17.496 9.97124 16.488C9.10664 15.48 8.67434 14.096 8.67434 12.337V11.623C8.67434 10.5 8.87386 9.511 9.2719 8.655C9.67095 7.8 10.2403 7.143 10.982 6.686C11.7226 6.229 12.5832 6 13.5637 6C14.922 6 16.0154 6.361 16.8457 7.083C17.6761 7.805 18.1547 8.818 18.2847 10.123H15.8602C15.8007 9.369 15.5891 8.822 15.2253 8.483C14.8616 8.143 14.3083 7.974 13.5647 7.974C12.7565 7.974 12.1519 8.262 11.7498 8.836C11.3488 9.411 11.1422 10.303 11.1311 11.511V12.393C11.1311 13.655 11.3236 14.578 11.7085 15.16C12.0934 15.743 12.7011 16.034 13.5314 16.034C14.2801 16.034 14.8394 15.864 15.2082 15.525C15.577 15.185 15.7886 14.66 15.8431 13.949H18.2686ZM12.2385 2C17.795 2 22.3155 6.486 22.3155 12C22.3155 17.514 17.795 22 12.2385 22C6.68213 22 2.16162 17.514 2.16162 12C2.16162 6.486 6.68213 2 12.2385 2ZM12.2385 0C5.56057 0 0.14624 5.373 0.14624 12C0.14624 18.627 5.56057 24 12.2385 24C18.9165 24 24.3309 18.627 24.3309 12C24.3309 5.373 18.9165 0 12.2385 0Z" fill="white"/>
</svg>
