<svg width="50" height="47" viewBox="0 0 50 47" fill="none" xmlns="http://www.w3.org/2000/svg">
<g clip-path="url(#clip0_71_1472)">
<path d="M42.5458 15.8227C42.175 9.01871 36.2313 3.66096 29.1458 4.26305C26.8813 1.65259 23.5354 0 19.7917 0C13.1833 0 7.80417 5.14302 7.45417 11.6123C3.21875 12.3681 0 16.0438 0 20.4668C0 25.4393 4.06042 29.4729 9.07083 29.4729H11.8333C13.4396 31.995 16.2583 33.6833 19.4875 33.6833H40.9271C45.9396 33.6833 50 29.6498 50 24.6773C50 20.2542 46.7813 16.5785 42.5458 15.8227ZM10.4729 25.2625H9.07083C6.36875 25.2625 4.16667 23.1131 4.16667 20.4668C4.16667 16.008 8.55 14.9996 11.4333 15.1764C11.3292 12.3239 11.7188 4.21042 19.7917 4.21042C21.8063 4.21042 23.3625 4.73672 24.5625 5.56828C20.7646 7.50717 18.1125 11.3471 17.8708 15.8227C13.6583 16.5743 10.1688 20.3005 10.4729 25.2625ZM40.9271 29.4729H19.4875C16.7854 29.4729 14.5833 27.3235 14.5833 24.6773C14.5833 20.2184 18.9667 19.21 21.85 19.3869C21.7458 16.5343 22.1354 8.42083 30.2083 8.42083C38.0646 8.42083 39.0187 16.3596 38.5667 19.3869C41.7104 19.1658 45.8333 20.3068 45.8333 24.6773C45.8333 27.3235 43.6313 29.4729 40.9271 29.4729ZM11.1542 44.0683L14.4667 40.7211L15.9375 42.2094L12.625 45.5567L11.1542 44.0683ZM20.975 45.5399L24.2875 42.1905L22.8146 40.7021L19.5021 44.0515L20.975 45.5399ZM15.9375 39.2327L17.4104 40.7211L20.8167 37.2769L19.3438 35.7885L15.9375 39.2327ZM9.67917 45.5567L6.25 49.0198L7.72292 50.5082L11.1521 47.043L9.67917 45.5567ZM29.3146 45.5799L32.6292 42.2305L31.1563 40.7421L27.8417 44.0915L29.3146 45.5799ZM18.0292 45.5399L14.5833 49.0198L16.0562 50.5082L19.5021 47.0283L18.0292 45.5399ZM32.6292 39.2537L34.1021 40.7421L37.5167 37.2917L36.0438 35.8033L32.6292 39.2537ZM26.3708 45.5799L22.9479 49.0366L24.4229 50.525L27.8438 47.0683L26.3708 45.5799Z" fill="white"/>
</g>
<defs>
<clipPath id="clip0_71_1472">
<rect width="50" height="47" fill="white"/>
</clipPath>
</defs>
</svg>
