<svg width="50" height="50" viewBox="0 0 50 50" fill="none" xmlns="http://www.w3.org/2000/svg">
<circle cx="25" cy="25" r="25" fill="#FA8072"/>
<g clip-path="url(#clip0_227_35)">
<path d="M26.144 21.171C26.109 21.105 26.486 21.069 26.553 21.069C26.627 21.078 26.357 21.521 26.144 21.171ZM23.992 18.099L24.1 18.068C24.164 18.123 24.028 18.163 24.049 18.204C24.135 18.359 24.07 18.452 24.057 18.536C24.043 18.621 23.953 18.584 23.908 18.629C23.855 18.695 24.166 18.704 24.17 18.714C24.181 18.747 23.795 18.803 23.866 18.885C23.962 19.021 24.69 18.69 24.574 18.709C24.799 18.596 24.603 18.584 24.477 18.519C24.434 18.304 24.398 17.972 24.264 17.839L24.352 17.737C24.146 17.438 23.992 18.099 23.992 18.099ZM37 25C37 31.627 31.627 37 25 37C18.372 37 13 31.627 13 25C13 18.373 18.372 13 25 13C31.627 13 37 18.373 37 25ZM28.69 19.629C28.684 19.483 28.5 19.345 28.308 19.598C28.173 19.772 28.197 20.037 28.124 20.155C28.02 20.33 28.691 20.494 28.691 20.329C28.716 20.052 29.423 20.266 29.561 20.304C29.809 20.373 30.204 20.078 29.772 19.923C29.417 19.793 29.23 19.654 29.198 19.4C29.198 19.4 29.386 19.224 29.304 19.234C29.086 19.261 28.69 20.02 28.69 19.629ZM34.986 25C34.986 23.965 34.809 22.92 34.629 22.368C34.571 22.194 34.44 22.056 34.27 21.99C34.014 21.89 32.933 22.587 32.77 22.244C32.663 22.015 32.446 22.39 32.198 22.252C32.078 22.186 31.744 21.737 31.593 21.792C31.284 21.903 32.067 22.756 32.281 22.868C32.482 22.716 33.133 22.403 33.273 22.83C33.541 23.634 32.536 24.515 32.022 24.979C31.254 25.673 31.398 24.53 30.875 24.127C30.6 23.916 30.603 23.467 30.325 23.312C30.201 23.242 29.632 22.587 29.637 22.499L29.62 22.665C29.526 22.736 29.326 22.397 29.305 22.344C29.305 22.639 29.785 23.109 29.944 23.345C30.215 23.75 30.36 24.34 30.692 24.671C30.87 24.849 31.55 25.585 31.727 25.569C31.92 25.552 32.53 25.111 32.638 25.136C33.282 25.288 31.122 28.341 30.917 28.719C30.748 29.036 31.055 29.82 31.03 30.195C31.001 30.628 30.66 30.768 30.337 31.004C29.991 31.257 30.072 31.749 29.781 31.929C29.264 32.247 28.892 33.282 28.158 33.277C27.942 33.276 27.018 33.637 26.897 33.284C26.803 33.028 26.677 32.834 26.544 32.581C26.414 32.333 26.529 32.076 26.371 31.857C26.262 31.705 25.896 31.36 25.863 31.18C25.861 31.025 25.98 30.554 26.143 30.472C26.372 30.355 26.187 30.014 26.159 29.816C26.111 29.462 25.892 29.17 25.629 28.965C25.24 28.666 25.441 28.428 25.532 28.001C25.532 27.797 25.408 27.529 25.134 27.609C24.57 27.773 24.741 27.169 24.33 27.196C24.034 27.217 23.792 27.405 23.517 27.488C23.171 27.592 22.817 27.406 22.475 27.363C21.068 27.185 20.609 25.577 20.976 24.417C21.013 24.227 20.862 23.875 20.928 23.728C21.086 23.376 21.408 22.981 21.69 22.714C21.848 22.564 22.051 22.602 22.237 22.485C22.524 22.304 22.528 21.932 22.809 21.704C23.209 21.379 23.755 21.386 24.277 21.316C24.555 21.279 25.613 21.05 25.78 21.256C25.78 21.294 25.971 21.86 25.761 21.828C26.194 21.851 26.811 22.577 27.222 22.407C27.433 22.319 27.356 21.671 27.789 21.984C28.051 22.172 29.225 22.256 29.469 22.053C29.619 21.929 29.703 21.123 29.521 21.032C29.637 21.147 28.91 21.156 28.842 21.13C28.722 21.086 28.61 21.244 28.417 21.155C28.533 21.21 27.771 20.801 28.199 20.488C28.02 20.619 27.853 20.451 27.66 20.595C27.527 20.703 27.722 20.775 27.532 20.869C27.23 21.022 27.002 20.344 26.888 20.267C26.772 20.191 25.874 19.561 26.118 19.972L26.907 20.757C26.868 20.782 26.7 20.471 26.7 20.698C26.753 20.563 26.72 21.277 26.596 21.045C26.541 20.956 26.686 20.906 26.602 20.777C26.602 20.692 26.374 20.609 26.33 20.551C26.205 20.396 25.873 20.054 25.693 19.972C25.643 19.949 24.929 20.059 24.869 20.082C24.799 20.18 24.739 20.283 24.69 20.393C24.542 20.448 24.403 20.519 24.271 20.607L24.114 20.96C24.046 21.021 23.349 21.251 23.345 21.26C23.374 21.185 22.858 21.089 22.892 20.939C22.93 20.774 23.105 20.259 23.06 20.071C23.012 19.874 24.134 20.355 24.206 19.836C24.235 19.611 24.252 19.349 23.893 19.311C23.961 19.319 24.588 19.065 24.692 18.951C24.838 18.783 25.173 18.509 25.416 18.509C25.7 18.509 25.639 18.096 25.77 17.894C25.901 17.947 25.7 18.27 25.857 18.401C25.847 18.298 26.302 18.458 26.346 18.434C26.45 18.38 27.03 18.412 26.94 18.14C26.84 17.863 26.991 17.945 27.121 17.887C27.099 17.896 27.461 17.268 27.523 17.474C27.48 17.262 27.102 17.548 26.97 17.537C26.665 17.513 26.794 17.017 26.909 16.872C26.998 16.757 26.666 16.616 26.662 16.836C26.656 17.165 26.35 17.463 26.421 17.9C26.529 18.559 25.686 17.741 25.612 17.786C25.332 17.956 25.103 17.572 25.248 17.342C25.396 17.107 25.753 17.118 25.9 16.866C26.004 16.688 26.125 16.481 26.285 16.346C26.82 15.897 26.968 16.256 27.501 16.305C28.022 16.353 27.677 16.429 27.605 16.629C27.536 16.819 27.891 16.887 28.014 16.728C28.084 16.636 28.243 16.405 28.312 16.234C28.401 16.012 29.213 16.037 28.646 15.698C28.272 15.475 26.642 15.026 25.55 15.026C25.314 15.026 25.149 15.289 24.969 15.438C24.613 15.733 23.701 16.312 23.194 16.136C22.675 15.957 21.564 16.796 21.386 16.802C21.321 16.806 21.39 16.168 21.744 16.121C21.591 16.144 22.991 15.414 22.953 15.262C22.907 15.082 20.154 16.084 20.277 16.285C20.336 16.377 20.576 16.377 20.261 16.579C20.081 16.688 19.889 17.38 19.72 17.38C19.215 17.601 19.183 16.945 18.621 17.789L17.727 18.149C16.399 19.56 15.48 21.347 15.147 23.332C15.134 23.411 15.481 23.558 15.526 23.612C15.638 23.746 15.638 24.324 15.693 24.513C15.831 24.991 16.172 25.257 16.433 25.692C16.587 25.951 16.843 26.606 16.762 26.878C16.87 26.7 17.832 27.693 18.008 27.9C18.422 28.387 18.741 28.977 18.069 29.459C17.852 29.615 18.399 30.588 18.117 30.827L17.756 30.92C17.4 31.139 17.561 31.676 17.777 31.902C19.595 33.803 22.157 34.989 24.997 34.989C30.514 34.989 34.986 30.517 34.986 25ZM23.479 18.643C23.604 18.588 23.772 18.59 23.79 18.423C23.805 18.275 23.834 18.377 23.87 18.323C23.905 18.27 23.803 18.185 23.76 18.177C23.696 18.163 23.652 18.246 23.611 18.281L23.539 18.3L23.471 18.387L23.479 18.435L23.392 18.541C23.307 18.625 23.394 18.68 23.479 18.643Z" fill="white"/>
</g>
<defs>
<clipPath id="clip0_227_35">
<rect width="24" height="24" fill="white" transform="translate(13 13)"/>
</clipPath>
</defs>
</svg>
