<svg width="467" height="50" viewBox="0 0 467 50" fill="none" xmlns="http://www.w3.org/2000/svg">
<rect width="467" height="50" fill="#FC6C85"/>
<path d="M27.8945 14.0791H41.7178V17.3818H31.6055V24.6182H41.7178V27.9209H31.6055V40H27.8945V14.0791Z" fill="white"/>
<path d="M63.5678 29.7393V36.9941C63.5678 37.5755 63.7657 37.8662 64.1615 37.8662C64.5697 37.8662 65.2068 37.5632 66.0727 36.957V39.0166C65.3057 39.5114 64.6872 39.8454 64.2172 40.0186C63.7595 40.2041 63.2771 40.2969 62.7699 40.2969C61.3227 40.2969 60.4691 39.7279 60.2094 38.5898C58.7745 39.7031 57.2468 40.2598 55.6264 40.2598C54.4389 40.2598 53.4493 39.8701 52.6576 39.0908C51.866 38.2992 51.4701 37.3096 51.4701 36.1221C51.4701 35.0459 51.8536 34.0872 52.6205 33.2461C53.3998 32.3926 54.5007 31.7184 55.9232 31.2236L60.2465 29.7393V28.8301C60.2465 26.7767 59.2198 25.75 57.1664 25.75C55.3233 25.75 53.5297 26.7025 51.7855 28.6074V24.915C53.0967 23.3688 54.9831 22.5957 57.4447 22.5957C59.2878 22.5957 60.766 23.0781 61.8793 24.043C62.2504 24.3522 62.5844 24.7666 62.8812 25.2861C63.1781 25.7933 63.3637 26.3066 63.4379 26.8262C63.5245 27.3333 63.5678 28.3044 63.5678 29.7393ZM60.2465 36.623V31.5576L57.9828 32.4297C56.8324 32.8874 56.016 33.3512 55.5336 33.8213C55.0635 34.279 54.8285 34.8542 54.8285 35.5469C54.8285 36.252 55.0512 36.8271 55.4965 37.2725C55.9542 37.7178 56.5417 37.9404 57.2592 37.9404C58.3354 37.9404 59.3311 37.5013 60.2465 36.623Z" fill="white"/>
<path d="M89.4627 36.0107V39.3506C87.768 39.9814 86.1105 40.2969 84.49 40.2969C81.8182 40.2969 79.6844 39.5052 78.0887 37.9219C76.5053 36.3385 75.7137 34.2171 75.7137 31.5576C75.7137 28.8734 76.4868 26.7087 78.033 25.0635C79.5792 23.4183 81.6141 22.5957 84.1375 22.5957C85.0158 22.5957 85.8012 22.6823 86.4939 22.8555C87.199 23.0163 88.0649 23.3255 89.0916 23.7832V27.3828C87.3846 26.2943 85.8012 25.75 84.3416 25.75C82.8201 25.75 81.5708 26.2881 80.5936 27.3643C79.6163 28.4281 79.1277 29.7887 79.1277 31.4463C79.1277 33.1904 79.6535 34.5758 80.7049 35.6025C81.7687 36.6292 83.1974 37.1426 84.991 37.1426C86.2898 37.1426 87.7804 36.7653 89.4627 36.0107Z" fill="white"/>
<path d="M115.469 31.7617H103.464C103.551 33.3945 104.095 34.6934 105.097 35.6582C106.111 36.623 107.416 37.1055 109.012 37.1055C111.238 37.1055 113.292 36.4128 115.172 35.0273V38.3301C114.133 39.0228 113.1 39.5176 112.073 39.8145C111.059 40.1113 109.865 40.2598 108.492 40.2598C106.612 40.2598 105.091 39.8701 103.928 39.0908C102.765 38.3115 101.831 37.2663 101.126 35.9551C100.433 34.6315 100.087 33.1038 100.087 31.3721C100.087 28.7744 100.823 26.6654 102.295 25.0449C103.767 23.4121 105.678 22.5957 108.029 22.5957C110.292 22.5957 112.098 23.3874 113.446 24.9707C114.795 26.554 115.469 28.6755 115.469 31.335V31.7617ZM103.538 29.7393H112.129C112.043 28.391 111.64 27.3519 110.923 26.6221C110.206 25.8923 109.241 25.5273 108.029 25.5273C106.816 25.5273 105.821 25.8923 105.041 26.6221C104.274 27.3519 103.773 28.391 103.538 29.7393Z" fill="white"/>
<path d="M145.42 14.0791H149.131V40H145.42V14.0791Z" fill="white"/>
<path d="M162.52 39.9629V14.0791H171.259C174.785 14.0791 177.574 14.611 179.627 15.6748C181.681 16.7262 183.314 18.2786 184.526 20.332C185.738 22.3854 186.344 24.6243 186.344 27.0488C186.344 28.7806 186.01 30.4382 185.342 32.0215C184.674 33.6048 183.722 34.9964 182.485 36.1963C181.223 37.4333 179.757 38.3672 178.087 38.998C177.11 39.3815 176.213 39.6413 175.397 39.7773C174.58 39.901 173.022 39.9629 170.721 39.9629H162.52ZM170.87 17.3818H166.231V36.6602H170.981C172.836 36.6602 174.277 36.5365 175.304 36.2891C176.331 36.0293 177.184 35.7077 177.865 35.3242C178.557 34.9284 179.188 34.446 179.757 33.877C181.588 32.0215 182.503 29.6774 182.503 26.8447C182.503 24.0615 181.563 21.7917 179.683 20.0352C178.99 19.3796 178.192 18.8415 177.289 18.4209C176.399 18.0003 175.551 17.722 174.747 17.5859C173.943 17.4499 172.651 17.3818 170.87 17.3818Z" fill="white"/>
<path d="M205.003 29.127L202.182 27.4199C200.414 26.3438 199.152 25.2861 198.397 24.2471C197.655 23.1956 197.284 21.9896 197.284 20.6289C197.284 18.5879 197.989 16.9303 199.399 15.6562C200.822 14.3822 202.665 13.7451 204.929 13.7451C207.093 13.7451 209.079 14.3512 210.885 15.5635V19.7754C209.017 17.9818 207.007 17.085 204.854 17.085C203.642 17.085 202.646 17.3695 201.867 17.9385C201.088 18.4951 200.698 19.2126 200.698 20.0908C200.698 20.8701 200.983 21.5999 201.552 22.2803C202.121 22.9606 203.042 23.6719 204.316 24.4141L207.155 26.084C210.322 27.9642 211.905 30.3639 211.905 33.2832C211.905 35.3613 211.206 37.0498 209.808 38.3486C208.423 39.6475 206.617 40.2969 204.39 40.2969C201.83 40.2969 199.498 39.5114 197.395 37.9404V33.2275C199.399 35.7633 201.719 37.0312 204.353 37.0312C205.516 37.0312 206.481 36.7096 207.248 36.0664C208.027 35.4108 208.417 34.5944 208.417 33.6172C208.417 32.0339 207.279 30.5371 205.003 29.127Z" fill="white"/>
<path d="M248.183 29.127L245.363 27.4199C243.594 26.3438 242.332 25.2861 241.578 24.2471C240.836 23.1956 240.464 21.9896 240.464 20.6289C240.464 18.5879 241.17 16.9303 242.58 15.6562C244.002 14.3822 245.845 13.7451 248.109 13.7451C250.274 13.7451 252.259 14.3512 254.065 15.5635V19.7754C252.197 17.9818 250.187 17.085 248.035 17.085C246.823 17.085 245.827 17.3695 245.047 17.9385C244.268 18.4951 243.879 19.2126 243.879 20.0908C243.879 20.8701 244.163 21.5999 244.732 22.2803C245.301 22.9606 246.223 23.6719 247.497 24.4141L250.336 26.084C253.502 27.9642 255.086 30.3639 255.086 33.2832C255.086 35.3613 254.387 37.0498 252.989 38.3486C251.603 39.6475 249.797 40.2969 247.571 40.2969C245.01 40.2969 242.679 39.5114 240.576 37.9404V33.2275C242.58 35.7633 244.899 37.0312 247.534 37.0312C248.697 37.0312 249.661 36.7096 250.428 36.0664C251.208 35.4108 251.597 34.5944 251.597 33.6172C251.597 32.0339 250.459 30.5371 248.183 29.127Z" fill="white"/>
<path d="M279.106 36.0107V39.3506C277.412 39.9814 275.754 40.2969 274.134 40.2969C271.462 40.2969 269.328 39.5052 267.732 37.9219C266.149 36.3385 265.357 34.2171 265.357 31.5576C265.357 28.8734 266.131 26.7087 267.677 25.0635C269.223 23.4183 271.258 22.5957 273.781 22.5957C274.66 22.5957 275.445 22.6823 276.138 22.8555C276.843 23.0163 277.709 23.3255 278.735 23.7832V27.3828C277.028 26.2943 275.445 25.75 273.985 25.75C272.464 25.75 271.215 26.2881 270.237 27.3643C269.26 28.4281 268.771 29.7887 268.771 31.4463C268.771 33.1904 269.297 34.5758 270.349 35.6025C271.412 36.6292 272.841 37.1426 274.635 37.1426C275.934 37.1426 277.424 36.7653 279.106 36.0107Z" fill="white"/>
<path d="M290.492 14.0791H293.869V25.1748C295.279 23.4554 297.029 22.5957 299.12 22.5957C300.258 22.5957 301.278 22.8802 302.181 23.4492C303.084 24.0182 303.752 24.8037 304.185 25.8057C304.63 26.8076 304.853 28.2982 304.853 30.2773V40H301.476V29.4424C301.476 28.193 301.167 27.1911 300.548 26.4365C299.942 25.6696 299.138 25.2861 298.136 25.2861C297.394 25.2861 296.695 25.4779 296.039 25.8613C295.384 26.2448 294.66 26.8818 293.869 27.7725V40H290.492V14.0791Z" fill="white"/>
<path d="M325.33 22.8926C327.928 22.8926 330.086 23.7337 331.805 25.416C333.525 27.0859 334.385 29.1888 334.385 31.7246C334.385 34.1862 333.513 36.2334 331.768 37.8662C330.024 39.4867 327.829 40.2969 325.181 40.2969C322.621 40.2969 320.481 39.4743 318.762 37.8291C317.042 36.1715 316.182 34.1058 316.182 31.6318C316.182 29.1331 317.048 27.055 318.78 25.3975C320.524 23.7275 322.707 22.8926 325.33 22.8926ZM325.144 25.9355C323.524 25.9355 322.194 26.4674 321.155 27.5312C320.116 28.5951 319.596 29.9495 319.596 31.5947C319.596 33.2275 320.128 34.5635 321.192 35.6025C322.256 36.6292 323.623 37.1426 325.293 37.1426C326.95 37.1426 328.305 36.623 329.356 35.584C330.42 34.5326 330.952 33.1904 330.952 31.5576C330.952 29.9372 330.402 28.5951 329.301 27.5312C328.2 26.4674 326.814 25.9355 325.144 25.9355Z" fill="white"/>
<path d="M353.897 22.8926C356.494 22.8926 358.653 23.7337 360.372 25.416C362.092 27.0859 362.951 29.1888 362.951 31.7246C362.951 34.1862 362.079 36.2334 360.335 37.8662C358.591 39.4867 356.395 40.2969 353.748 40.2969C351.188 40.2969 349.048 39.4743 347.328 37.8291C345.609 36.1715 344.749 34.1058 344.749 31.6318C344.749 29.1331 345.615 27.055 347.347 25.3975C349.091 23.7275 351.274 22.8926 353.897 22.8926ZM353.711 25.9355C352.091 25.9355 350.761 26.4674 349.722 27.5312C348.683 28.5951 348.163 29.9495 348.163 31.5947C348.163 33.2275 348.695 34.5635 349.759 35.6025C350.823 36.6292 352.19 37.1426 353.86 37.1426C355.517 37.1426 356.872 36.623 357.923 35.584C358.987 34.5326 359.519 33.1904 359.519 31.5576C359.519 29.9372 358.968 28.5951 357.867 27.5312C356.766 26.4674 355.381 25.9355 353.711 25.9355Z" fill="white"/>
<path d="M374.374 14.0791H377.751V40H374.374V14.0791Z" fill="white"/>
</svg>
