<svg width="128" height="138" viewBox="0 0 128 138" fill="none" xmlns="http://www.w3.org/2000/svg">
<g filter="url(#filter0_d_1_464)">
<path d="M60 0L120 32.5V97.5L60 130L0 97.5V32.5L60 0Z" fill="#ffbe98"/>
</g>
<path d="M49.8901 73.1589V67.7747V61.387V57.5169C47.8444 57.9615 46.278 58.1652 44.921 58.177H44.9157H44.9105C44.1879 58.1753 43.605 58.1176 43.0222 57.9895C42.1833 57.803 41.4842 57.4899 40.8805 57.0343C40.8379 57.0019 40.8132 56.9564 40.8005 56.9024C40.3676 58.2286 40.1803 59.7184 40.3657 61.3934C40.7822 65.1566 44.8159 71.5415 49.8901 73.1589ZM67.9702 42.1H56.4581C56.4831 42.5803 56.5115 43.3311 56.5115 44.2671C56.5108 45.7552 56.4401 47.7091 56.165 49.7886C56.1321 50.0365 56.1011 50.3039 56.07 50.5788C56.5478 50.9704 56.9175 51.4754 57.1232 52.0622C57.663 53.6037 56.9063 55.2385 55.4087 56.0082C55.0842 57.8633 54.6244 59.6523 53.6229 61.0777C52.9926 61.9918 51.9522 62.7966 50.6381 63.0236V100.83C50.6381 103.134 52.7081 105 55.2599 105C57.8125 105 59.8825 103.134 59.8825 100.83V70.3823H61.6152V100.83C61.6152 103.134 63.6852 105 66.237 105C68.7896 105 70.8596 103.134 70.8596 100.83V49.404C71.1026 49.7548 71.3545 50.1795 71.6073 50.6884C71.7661 51.0082 71.925 51.358 72.0824 51.7499C73.1359 54.3855 74.0223 58.7083 74.0185 65.4568C74.0185 67.3166 73.9524 69.3593 73.8073 71.6039C73.7116 73.0911 74.9703 74.3681 76.6194 74.4544C76.6788 74.4578 76.7379 74.4591 76.7966 74.4591C78.3689 74.4595 79.6863 73.3518 79.7794 71.9183C79.9297 69.5799 80 67.4323 80 65.4571C79.985 55.2766 78.1828 49.6428 75.7255 46.2547C74.4978 44.5733 73.0611 43.4947 71.7336 42.8967C71.3542 42.7243 70.9908 42.5948 70.6457 42.4933C69.8263 42.2511 69.1287 42.1823 68.6547 42.1772C68.4352 42.1286 68.2068 42.1 67.9702 42.1ZM51.1118 59.6122C51.5279 59.0422 51.9025 58.0907 52.1727 56.9732C51.6325 57.1118 51.123 57.2363 50.6378 57.349V60.1195C50.7839 60.0045 50.935 59.8429 51.1118 59.6122Z" fill="white"/>
<path d="M60.7486 40.1782C65.3941 40.1782 69.16 36.7804 69.16 32.5891C69.16 28.3977 65.3941 25 60.7486 25C56.1031 25 52.3372 28.3977 52.3372 32.5891C52.3372 36.7804 56.1031 40.1782 60.7486 40.1782Z" fill="white"/>
<path d="M41.3605 56.5178V56.5172C41.9751 56.9809 42.6189 57.2049 43.1987 57.3344C43.7841 57.4622 44.3382 57.5007 44.9135 57.5024C47.1715 57.4822 50.0175 56.903 54.4599 55.6517C56.0349 55.2024 56.9082 53.6869 56.4106 52.2656C55.913 50.8446 54.233 50.0567 52.658 50.5056C48.5136 51.702 45.8784 52.1256 44.9135 52.1054C44.8832 52.1054 44.8619 52.1044 44.8361 52.1037C45.623 51.8666 47.5334 51.2928 49.8904 50.6021V50.514C50.139 50.3204 50.3888 50.1299 50.6381 49.9416V50.3835C51.2176 50.2145 51.8172 50.0401 52.4299 49.8634C52.6714 49.7942 52.9171 49.7501 53.1645 49.7261C53.175 49.6415 53.1847 49.5511 53.1956 49.4684C53.4517 47.5317 53.5208 45.6756 53.5208 44.2667C53.5208 43.4832 53.4999 42.8376 53.4793 42.3917C53.47 42.1917 53.461 42.0365 53.4539 41.9235C52.8116 41.9013 52.157 42.0625 51.5948 42.4271C51.5776 42.4386 51.0445 42.7843 50.2217 43.3469C49.1973 44.0475 47.7229 45.085 46.2242 46.2395C44.8694 47.2861 43.5 48.4171 42.3751 49.5578C41.811 50.1322 41.3037 50.7053 40.8734 51.3485C40.4637 52.0001 40.0322 52.7078 40.0027 53.8593C39.9638 54.5943 40.3452 55.564 41.008 56.2173C41.0106 56.2129 41.0132 56.2085 41.0158 56.2038C41.1201 56.3148 41.233 56.421 41.3605 56.5178Z" fill="white"/>
</svg>
