<svg width="150" height="138" viewBox="0 0 150 138" fill="none" xmlns="http://www.w3.org/2000/svg">
<path class='my-path' d="M75 0L139.952 34.4933V103.48L75 137.973L10.0481 103.48V34.4933L75 0Z" fill="#ffbe98"/>
<line x1="140.233" y1="34.4424" x2="9.23302" y2="103.442" stroke="white"/>
<path d="M114.381 86.5294C113.566 77.505 107.546 69 96.7586 69C85.971 69 79.9514 77.505 79.1359 86.5294C75.6102 86.8388 74 90.1313 74 93.9619C74 97.2525 75.8491 101.4 79.8869 103.132C85.4533 113.203 94.1755 114 96.7586 114C99.3417 114 108.064 113.203 113.63 103.132C117.668 101.398 119.517 97.2525 119.517 93.9619C119.517 90.1762 117.922 86.8406 114.381 86.5294ZM111.679 99.8606C111.212 100.016 110.825 100.346 110.6 100.781C106.037 109.568 98.8524 110.25 96.7586 110.25C94.6648 110.25 87.4807 109.568 82.9176 100.781C82.6919 100.348 82.305 100.018 81.8384 99.8606C77.1957 98.3062 76.9966 91.6781 78.8931 90.4631C79.2838 90.2137 79.8224 90.2119 80.1657 90.3638C81.4174 90.9112 82.8322 90.0094 82.8322 88.65L82.8702 87.5887C86.2897 86.8275 91.0841 82.3875 92.2847 80.0156C92.1538 81.6131 90.5948 86.1169 88.3474 87.6337C93.5591 87.6337 100.201 82.9331 102.922 78.5813C103.089 82.4831 106.932 86.1112 110.575 86.6644C110.639 87.3281 110.685 87.99 110.685 88.65C110.685 90.0056 112.098 90.9131 113.352 90.3638C113.619 90.2456 114.177 90.1762 114.624 90.4631C116.521 91.6781 116.322 98.3062 111.679 99.8606ZM105.293 92.4375C105.293 93.99 104.231 95.25 102.922 95.25C101.614 95.25 100.552 93.99 100.552 92.4375C100.552 90.885 101.614 89.625 102.922 89.625C104.231 89.625 105.293 90.885 105.293 92.4375ZM90.5948 95.25C89.2862 95.25 88.2241 93.99 88.2241 92.4375C88.2241 90.885 89.2862 89.625 90.5948 89.625C91.9034 89.625 92.9655 90.885 92.9655 92.4375C92.9655 93.99 91.9034 95.25 90.5948 95.25ZM91.069 100.875H102.448C102.448 100.875 100.997 105.289 96.7586 105.289C92.6753 105.289 91.069 100.875 91.069 100.875ZM129 100.875C123.726 102.369 121.951 98.8875 121.414 93.375C120.473 83.715 119.568 76.6387 113.731 77.8969C113.014 76.3144 112.138 74.7413 110.719 73.2525C112.375 71.1394 115.523 69 119.123 69C132.998 69 126.273 90.5456 126.273 95.25C126.273 98.0625 126.83 99.6056 129 100.875Z" fill="white"/>
<path d="M71.3583 41.698C70.6083 33.882 65.7375 28.538 58.4417 26.574C56.6208 26.082 52.9896 25.33 56.1667 21C46.0208 21 33.8146 29.47 32.6417 41.698C28.7687 42.028 27 45.54 27 49.626C27 53.136 29.0313 57.56 33.4667 59.408C39.5812 70.15 49.1625 71 52 71C54.8375 71 64.4188 70.15 70.5333 59.408C74.9688 57.558 77 53.136 77 49.626C77 45.588 75.2479 42.03 71.3583 41.698ZM68.3896 55.918C67.8771 56.084 67.4521 56.436 67.2042 56.9C62.1917 66.272 54.3 67 52 67C49.7 67 41.8083 66.272 36.7958 56.9C36.5479 56.438 36.1229 56.086 35.6104 55.918C30.5104 54.26 30.2917 47.19 32.375 45.894C32.8646 45.59 33.4812 45.662 33.7729 45.788C35.15 46.374 36.7021 45.406 36.7021 43.96C36.7021 41.922 37.0167 40.084 37.5979 38.446C39.8729 33.326 44.1 41.174 52 41.174C59.9021 41.174 64.1292 33.324 66.4021 38.448C66.9812 40.086 67.2979 41.924 67.2979 43.96C67.2979 45.41 68.8521 46.374 70.2271 45.788C70.5187 45.662 71.1354 45.588 71.625 45.894C73.7083 47.19 73.4896 54.26 68.3896 55.918ZM61.375 48C61.375 49.656 60.2083 51 58.7708 51C57.3333 51 56.1667 49.656 56.1667 48C56.1667 46.344 57.3333 45 58.7708 45C60.2083 45 61.375 46.344 61.375 48ZM45.2292 51C43.7917 51 42.625 49.656 42.625 48C42.625 46.344 43.7917 45 45.2292 45C46.6667 45 47.8333 46.344 47.8333 48C47.8333 49.656 46.6667 51 45.2292 51ZM45.75 57H58.25C58.25 57 56.6562 61.708 52 61.708C47.5146 61.708 45.75 57 45.75 57Z" fill="white"/>
</svg>
