<svg width="50" height="50" viewBox="0 0 50 50" fill="none" xmlns="http://www.w3.org/2000/svg">
<circle cx="25" cy="25" r="25" fill="#FA8072"/>
<path d="M28.97 30.031C27.491 31.269 25.586 32.016 23.509 32.016C18.812 32.016 15 28.204 15 23.508C15 18.812 18.812 15 23.509 15C28.204 15 32.017 18.812 32.017 23.508C32.017 25.586 31.27 27.492 30.032 28.969L34.781 33.719C34.927 33.865 35 34.057 35 34.25C35 34.837 34.463 35 34.25 35C34.058 35 33.866 34.927 33.719 34.78L28.97 30.031ZM23.509 16.501C19.641 16.501 16.502 19.641 16.502 23.508C16.502 27.375 19.641 30.515 23.509 30.515C27.375 30.515 30.516 27.375 30.516 23.508C30.516 19.641 27.375 16.501 23.509 16.501Z" fill="white"/>
</svg>
