<svg width="120" height="130" viewBox="0 0 120 130" fill="none" xmlns="http://www.w3.org/2000/svg">
<path d="M60 0L120 32.5V97.5L60 130L0 97.5V32.5L60 0Z" fill="#FC6C85"/>
<g clip-path="url(#clip0_147_1000)">
<path fill-rule="evenodd" clip-rule="evenodd" d="M94.9519 82.4709L72.4032 82.4679L80.3686 94.1346H76.5448L68.5648 82.4679H62.8686L54.8886 94.1346H51.2019L59.1702 82.4679H50.5661V79.5513H74.5352V76.6346H83.2852V79.5513H92.0352V38.7179H42.4519V40.0217H39.5352V35.8013H94.9519V82.4709ZM44.6657 56.2209C46.5586 56.2209 48.4369 55.5996 49.6007 54.9492C51.8027 53.7242 57.4611 50.1571 59.7652 48.7542C60.3923 48.375 61.2119 48.515 61.6727 49.0867L61.699 49.1159C62.1773 49.7138 62.1219 50.5742 61.5736 51.0992L51.7415 60.4734C50.2219 61.9259 49.344 63.9238 49.2536 66.0209C48.9765 72.4579 48.4923 86.1809 48.2852 91.7867C48.2386 93.0992 47.1594 94.1375 45.8469 94.1375C44.5519 94.1375 43.5515 93.1225 43.4057 91.8392C43.0819 88.975 42.4461 82.2754 42.1602 79.5542C42.0436 78.4342 41.3465 77.7663 40.4569 77.7634C39.5702 77.7575 38.9315 78.4225 38.8586 79.5367C38.6777 82.2229 38.0827 89.0129 37.8611 91.8479C37.7619 93.1342 36.7032 94.1375 35.4111 94.1375C34.0927 94.1375 33.0077 93.0992 32.9523 91.7779C32.6694 84.9529 31.8761 65.6359 31.8761 65.6359L28.1223 72.4346C27.714 73.1754 26.8244 73.4963 26.0369 73.1929L26.034 73.19C25.369 72.9334 24.9519 72.3004 24.9519 71.615L25.0161 71.1571L28.6444 58.3442C29.0002 57.09 30.1465 56.2238 31.4532 56.2238H44.6657V56.2209ZM65.7852 62.0542H80.3686V59.1375H65.7852V62.0542ZM65.7852 56.2209H86.2019V53.3042H65.7852V56.2209ZM40.6261 41.6375C44.2457 41.6375 47.1886 44.5775 47.1886 48.2C47.1886 51.8225 44.2457 54.7625 40.6261 54.7625C37.0036 54.7625 34.0636 51.8225 34.0636 48.2C34.0636 44.5775 37.0036 41.6375 40.6261 41.6375ZM65.7852 50.3875H86.2019V47.4709H65.7852V50.3875Z" fill="white"/>
</g>
<defs>
<clipPath id="clip0_147_1000">
<rect width="70" height="70" fill="white" transform="translate(24.9519 30)"/>
</clipPath>
</defs>
</svg>
