<svg width="70" height="56" viewBox="0 0 70 56" fill="none" xmlns="http://www.w3.org/2000/svg">
<path d="M22.7439 10.4985C24.1361 10.4985 25.4713 9.94542 26.4557 8.961C27.4401 7.97658 27.9932 6.64141 27.9932 5.24923C27.9932 3.85705 27.4401 2.52189 26.4557 1.53746C25.4713 0.553042 24.1361 0 22.7439 0C21.3518 0 20.0166 0.553042 19.0322 1.53746C18.0477 2.52189 17.4947 3.85705 17.4947 5.24923C17.4947 6.64141 18.0477 7.97658 19.0322 8.961C20.0166 9.94542 21.3518 10.4985 22.7439 10.4985ZM13.525 21.9265C13.6343 21.8827 13.7328 21.839 13.8421 21.7952L11.9939 28.7395C11.3815 31.047 11.983 33.5076 13.6015 35.2683L21.3332 43.6998L23.7391 53.3344C24.2093 55.2044 26.1122 56.3527 27.9822 55.8824C29.8523 55.4122 31.0005 53.5093 30.5303 51.6393L28.015 41.5673C27.8073 40.7143 27.3808 39.9379 26.7902 39.2927L21.3769 33.3873L23.4876 26.2243L24.5374 28.7395C25.0186 29.8987 25.9044 30.8502 27.0308 31.4188L29.9507 32.8733C31.6786 33.7372 33.7783 33.0373 34.6422 31.3095C35.5061 29.5816 34.8062 27.4819 33.0784 26.618L30.7271 25.4478L29.0539 21.4234C27.173 16.9288 22.7767 13.9979 17.8993 13.9979C15.4059 13.9979 12.9454 14.5229 10.6707 15.529L9.79583 15.9117C6.19792 17.5084 3.44207 20.5485 2.20632 24.2777L1.92198 25.1307C1.30957 26.9679 2.30474 28.9473 4.13104 29.5597C5.95733 30.1721 7.94766 29.177 8.56007 27.3507L8.84441 26.4977C9.46775 24.6276 10.8457 23.1185 12.6392 22.3202L13.514 21.9374L13.525 21.9265ZM10.2442 36.7009L7.51023 43.5249L1.02524 50.0208C-0.341747 51.3878 -0.341747 53.6078 1.02524 54.9748C2.39223 56.3417 4.61221 56.3417 5.9792 54.9748L12.7157 48.2273C13.2188 47.7243 13.6125 47.1228 13.8749 46.4666L15.4606 42.5078L11.0097 37.6523C10.7363 37.357 10.4848 37.0399 10.2442 36.7118V36.7009ZM60.2103 16.7757C58.8433 15.4087 56.6233 15.4087 55.2564 16.7757C53.8894 18.1427 53.8894 20.3626 55.2564 21.7296L58.0341 24.4964H41.9911C40.0555 24.4964 38.4916 26.0602 38.4916 27.9959C38.4916 29.9316 40.0555 31.4954 41.9911 31.4954H58.0341L55.2564 34.2731C53.8894 35.6401 53.8894 37.8601 55.2564 39.2271C56.6233 40.5941 58.8433 40.5941 60.2103 39.2271L68.959 30.4783C70.326 29.1114 70.326 26.8914 68.959 25.5244L60.2103 16.7757ZM42.866 0C41.4115 0 40.2414 1.17014 40.2414 2.62462V7.87385C40.2414 9.32832 41.4115 10.4985 42.866 10.4985C44.3205 10.4985 45.4906 9.32832 45.4906 7.87385V2.62462C45.4906 1.17014 44.3205 0 42.866 0ZM45.4906 16.6226C45.4906 15.1681 44.3205 13.9979 42.866 13.9979C41.4115 13.9979 40.2414 15.1681 40.2414 16.6226V18.3723C40.2414 19.8268 41.4115 20.9969 42.866 20.9969C44.3205 20.9969 45.4906 19.8268 45.4906 18.3723V16.6226ZM42.866 34.9949C41.4115 34.9949 40.2414 36.165 40.2414 37.6195V39.3692C40.2414 40.8237 41.4115 41.9938 42.866 41.9938C44.3205 41.9938 45.4906 40.8237 45.4906 39.3692V37.6195C45.4906 36.165 44.3205 34.9949 42.866 34.9949ZM45.4906 48.1179C45.4906 46.6635 44.3205 45.4933 42.866 45.4933C41.4115 45.4933 40.2414 46.6635 40.2414 48.1179V53.3672C40.2414 54.8217 41.4115 55.9918 42.866 55.9918C44.3205 55.9918 45.4906 54.8217 45.4906 53.3672V48.1179Z" fill="#ffbe98"/>
</svg>
